<?xml version="1.0" standalone="no"?>
<!DOCTYPE svg PUBLIC "-//W3C//DTD SVG 20010904//EN"
 "http://www.w3.org/TR/2001/REC-SVG-20010904/DTD/svg10.dtd">
<svg version="1.0" xmlns="http://www.w3.org/2000/svg"
 width="500.000000pt" height="500.000000pt" viewBox="0 0 500.000000 500.000000"
 preserveAspectRatio="xMidYMid meet">

<g transform="translate(0.000000,500.000000) scale(0.100000,-0.100000)"
fill="#000000" stroke="none">
<path d="M2623 4070 c-37 -15 -28 -46 22 -80 25 -17 45 -35 45 -40 0 -20 -43
-9 -62 16 -14 17 -24 22 -31 15 -15 -15 9 -39 48 -47 89 -16 114 46 34 87 -22
11 -39 26 -39 34 0 21 24 19 45 -5 19 -21 45 -27 45 -9 0 9 -60 40 -77 38 -4
0 -18 -4 -30 -9z"/>
<path d="M2331 4038 c17 -60 10 -63 -34 -20 -30 29 -51 42 -71 42 -23 0 -27
-3 -21 -17 4 -10 9 -42 12 -70 3 -29 9 -53 13 -53 4 0 3 23 -1 52 -5 29 -7 54
-5 56 2 2 23 -20 47 -48 28 -33 49 -50 61 -48 10 2 19 5 20 8 4 18 -15 130
-22 130 -5 0 -5 -14 1 -32z"/>
<path d="M2845 4042 c-12 -12 -3 -19 20 -14 14 2 25 3 25 1 0 -2 -9 -32 -19
-66 l-19 -61 22 -6 c29 -8 38 -7 32 2 -3 5 1 30 9 57 8 26 15 53 15 60 0 11
-76 36 -85 27z"/>
<path d="M2008 4013 c-20 -5 -14 -25 19 -61 18 -19 20 -27 11 -34 -24 -14 -37
-8 -40 20 -2 15 -6 2 -8 -31 -3 -31 -2 -57 3 -57 4 0 7 11 7 24 0 16 7 26 23
30 35 9 47 7 47 -9 0 -18 1 -18 35 -5 l26 10 -47 57 c-50 62 -50 63 -76 56z"/>
<path d="M2952 4006 c7 -8 16 -12 21 -9 11 7 -2 23 -19 23 -12 0 -12 -2 -2
-14z"/>
<path d="M1756 3899 c-42 -33 -31 -100 21 -120 20 -7 35 -5 69 12 39 19 43 24
38 47 -9 35 -9 35 -33 22 -17 -9 -19 -15 -11 -30 14 -26 13 -30 -10 -30 -23 0
-59 36 -67 68 -7 31 15 47 38 26 23 -21 49 -18 49 6 0 28 -58 27 -94 -1z"/>
<path d="M3211 3840 c-35 -28 -57 -50 -49 -50 8 0 19 5 24 10 8 8 19 7 38 -1
20 -10 26 -18 22 -34 -4 -14 1 -25 15 -34 12 -7 22 -11 24 -9 2 2 8 34 14 72
7 50 7 74 -1 83 -15 18 -16 18 -87 -37z m42 -31 c-11 -11 -43 -2 -43 12 0 4
10 15 23 24 21 15 22 14 25 -6 2 -12 0 -25 -5 -30z"/>
<path d="M3040 3855 c0 -8 7 -15 15 -15 8 0 15 7 15 15 0 8 -7 15 -15 15 -8 0
-15 -7 -15 -15z"/>
<path d="M1608 3814 c-4 -4 6 -24 23 -45 35 -44 32 -46 -35 -23 -37 13 -53 14
-72 5 l-24 -11 42 -58 c24 -33 47 -57 52 -54 4 2 4 7 -1 11 -12 8 -67 81 -61
81 3 0 31 -9 64 -20 49 -17 63 -19 82 -9 12 7 19 15 14 18 -13 10 -69 85 -73
99 -3 7 -8 10 -11 6z"/>
<path d="M3442 3774 c4 -6 -13 -34 -38 -62 -25 -29 -42 -52 -37 -52 4 0 25 19
46 42 l37 43 -6 -69 c-6 -59 -5 -71 10 -82 16 -11 23 -6 61 39 23 29 40 56 38
60 -3 5 -17 -9 -32 -30 l-26 -38 -5 64 c-4 54 -9 66 -30 80 -13 9 -21 11 -18
5z"/>
<path d="M2248 3743 c7 -3 16 -2 19 1 4 3 -2 6 -13 5 -11 0 -14 -3 -6 -6z"/>
<path d="M2350 3699 c-25 -6 -53 -12 -63 -13 -9 -1 -23 -8 -29 -14 -7 -7 -18
-12 -25 -12 -7 0 -13 -4 -13 -9 0 -5 -12 -24 -26 -41 -49 -57 -64 -99 -64
-175 0 -108 47 -192 138 -244 8 -4 15 -24 16 -44 1 -29 -4 -38 -25 -51 -15 -9
-35 -13 -46 -9 -10 3 -15 2 -10 -2 11 -13 -34 -55 -59 -55 -19 0 -35 25 -102
158 -176 344 -165 326 -206 336 -25 7 -47 6 -65 -1 -44 -16 -130 -76 -134 -93
-3 -14 38 -99 53 -110 4 -3 17 -25 28 -50 12 -25 26 -52 32 -60 16 -24 95
-194 95 -205 0 -5 7 -18 16 -28 9 -10 24 -38 34 -63 9 -24 21 -44 26 -44 5 0
9 -7 9 -16 0 -13 -8 -15 -38 -12 -35 3 -38 1 -34 -19 2 -13 10 -23 17 -23 14
0 14 -72 0 -135 -3 -16 -8 -104 -9 -195 -3 -130 -8 -182 -24 -245 -30 -111
-29 -136 8 -163 25 -19 30 -30 30 -63 0 -22 7 -51 16 -64 14 -21 14 -32 4 -75
-7 -27 -15 -50 -19 -50 -14 0 -11 -80 4 -116 8 -21 34 -55 58 -77 l42 -39 -30
4 c-19 2 -34 11 -41 26 -6 13 -15 24 -20 25 -23 3 -72 36 -104 69 -74 78 -100
112 -100 130 0 10 -7 18 -15 18 -9 0 -15 -10 -15 -26 0 -22 -3 -24 -22 -19
-32 10 -48 33 -48 71 0 18 -4 36 -10 39 -5 3 -10 26 -10 50 0 24 -4 47 -10 50
-5 3 -10 30 -10 58 0 31 -6 62 -16 75 -11 16 -13 34 -9 65 6 40 4 46 -29 79
-20 20 -36 41 -36 47 0 6 -7 11 -15 11 -8 0 -15 -7 -15 -15 0 -8 -5 -15 -11
-15 -6 0 -26 -12 -45 -27 -24 -18 -32 -29 -24 -37 18 -18 11 -52 -14 -64 -23
-10 -24 -15 -22 -91 1 -45 6 -84 9 -88 4 -3 7 -2 7 4 0 6 11 8 25 5 23 -4 36
-22 17 -22 -8 0 -6 -42 5 -90 l6 -25 14 30 14 30 -5 -37 c-6 -47 2 -78 21 -78
8 0 11 -4 8 -10 -3 -5 4 -11 17 -11 16 -1 18 -3 6 -6 -15 -4 -14 -9 10 -45 27
-41 27 -41 32 -15 l5 26 25 -20 c15 -12 18 -19 8 -16 -13 5 -28 -10 -28 -28 0
-11 97 -112 160 -167 80 -69 184 -143 161 -115 -12 16 -8 17 65 16 44 0 72 -3
64 -6 -22 -9 -38 -28 -42 -49 -2 -14 13 -25 72 -50 41 -18 109 -43 152 -55 66
-19 78 -21 90 -8 8 8 13 20 10 28 -2 7 1 17 7 21 7 4 14 43 17 91 3 46 9 97
15 113 5 16 9 53 9 82 0 50 -5 59 -31 56 -4 -1 -6 10 -6 23 0 14 3 25 8 25 5
0 9 -9 9 -20 0 -14 7 -20 21 -20 14 0 19 5 16 15 -7 17 9 30 18 15 4 -6 8 -24
10 -41 3 -17 10 -38 17 -46 7 -9 11 -45 11 -94 -1 -43 3 -79 7 -79 4 0 8 -16
8 -35 0 -19 -4 -32 -9 -29 -5 3 -9 -19 -9 -48 0 -35 3 -48 9 -39 7 11 10 10
14 -5 4 -16 5 -17 6 -1 2 25 19 21 24 -5 4 -19 4 -18 6 5 2 40 21 23 21 -19
l0 -34 84 0 c117 0 145 7 138 33 -4 16 -2 19 11 14 10 -4 17 -2 17 3 0 6 5 10
10 10 16 0 12 -22 -6 -35 -14 -9 -7 -10 34 -5 62 8 70 14 49 38 -10 10 -14 22
-10 25 3 4 0 7 -8 8 -8 0 -22 2 -31 4 -10 2 -18 -3 -18 -11 0 -8 -5 -14 -11
-14 -7 0 -8 11 -4 30 4 18 2 30 -3 30 -6 0 -8 10 -4 22 5 21 6 21 14 2 4 -11
6 9 2 49 -4 55 -2 68 10 73 9 3 16 15 16 25 0 10 4 19 10 19 5 0 10 -10 10
-22 0 -54 13 -98 29 -99 10 0 11 -2 4 -6 -7 -2 -13 -11 -13 -18 0 -7 6 -15 13
-18 9 -3 9 -7 -2 -20 -12 -15 -11 -17 3 -17 12 0 16 11 18 53 0 28 1 58 1 65
-1 8 5 11 14 8 8 -3 17 -6 19 -6 2 0 4 -9 4 -20 0 -14 6 -20 17 -18 15 3 17
-6 14 -74 l-3 -77 66 23 c76 26 81 29 72 52 -5 13 -9 14 -21 4 -9 -7 -15 -8
-15 -2 0 12 29 24 41 16 5 -3 9 -12 9 -20 0 -9 5 -13 13 -10 6 3 20 9 30 12
21 8 22 18 2 34 -13 11 -13 14 0 27 13 13 19 13 46 -1 30 -15 33 -14 73 9 22
14 55 36 71 50 l30 25 -30 1 c-20 1 -23 3 -10 6 17 3 20 10 17 45 -4 40 -4 41
27 36 22 -3 31 -1 31 9 0 10 -7 13 -22 9 -13 -3 -17 -3 -10 0 6 3 10 10 6 15
-3 5 6 9 20 9 23 0 26 -4 26 -36 0 -27 -4 -35 -14 -31 -10 4 -16 -2 -19 -16
-4 -18 -5 -17 -6 6 -2 39 -31 37 -31 -3 0 -25 4 -30 25 -30 16 0 25 6 25 16 0
8 4 13 9 10 19 -12 34 26 32 84 -1 41 2 60 10 60 9 0 9 4 -1 14 -9 12 -8 15 9
13 18 -1 21 -8 21 -55 0 -33 4 -51 10 -47 6 3 10 28 10 55 0 42 3 49 23 53 21
4 21 4 -3 6 -20 1 -22 3 -10 11 10 6 11 10 3 10 -7 0 -13 6 -13 14 0 9 8 12
25 8 14 -2 25 -11 25 -18 0 -8 2 -14 5 -14 13 0 85 43 85 51 0 5 -24 10 -52
11 l-53 1 60 6 c50 5 56 7 33 14 -24 6 -28 13 -28 42 0 18 4 36 9 39 4 3 6 17
3 31 -3 19 0 25 14 26 11 0 14 3 6 6 -7 3 -18 0 -25 -5 -13 -11 -41 10 -30 22
4 3 3 6 0 6 -16 0 -33 -57 -26 -90 l6 -35 2 33 c1 21 6 32 16 32 12 0 15 -12
13 -52 l-1 -53 -7 50 -7 50 -1 -43 c-2 -40 -3 -42 -23 -32 -29 16 -51 -13 -24
-32 6 -5 3 -8 -7 -8 -13 0 -18 8 -19 28 -1 15 -3 20 -6 12 -2 -8 -16 -24 -31
-34 l-27 -19 23 25 c13 15 17 25 10 25 -21 0 -56 -61 -47 -83 6 -15 8 -13 8
11 1 21 4 26 10 16 6 -9 10 -10 16 -2 10 17 35 -5 35 -30 0 -14 -7 -19 -25
-19 -19 0 -26 -7 -31 -27 -9 -44 -12 -50 -13 -26 -1 12 -5 24 -9 27 -13 8 -36
-40 -27 -54 5 -8 0 -11 -16 -8 -33 5 -35 26 -3 38 15 6 24 13 20 17 -12 13
-57 -20 -53 -39 5 -17 -3 -22 -30 -19 -7 1 -13 -4 -13 -10 0 -8 -6 -6 -18 4
-10 9 -35 24 -57 33 -33 14 -37 18 -24 28 11 7 14 18 8 31 -4 11 -10 50 -14
87 -5 46 -11 66 -19 61 -6 -3 -1 5 11 19 19 20 23 35 22 84 -1 32 -5 64 -9 69
-5 6 -10 26 -12 45 -2 27 2 39 20 53 29 24 28 48 -9 178 -18 61 -30 111 -28
112 2 1 30 15 62 31 59 29 109 81 121 126 4 14 11 34 16 45 15 38 29 100 35
165 12 112 12 125 4 145 -6 16 -8 13 -9 -15 l-2 -35 -8 28 c-5 16 -7 34 -4 41
3 7 -7 18 -21 26 -14 8 -24 21 -22 29 1 9 -6 22 -18 29 -19 13 -19 13 5 9 22
-3 26 0 25 22 -1 14 6 37 15 51 9 14 22 37 29 52 8 15 22 36 31 45 9 10 17 23
18 28 1 6 8 17 16 27 8 9 12 19 9 21 -2 3 3 19 11 36 9 16 16 35 16 40 0 16
-179 161 -198 161 -13 0 -14 -2 -4 -9 11 -7 9 -17 -12 -50 -15 -22 -38 -66
-52 -96 -25 -51 -29 -55 -63 -56 -33 -1 -34 -2 -9 -8 28 -6 27 -23 -2 -34 -12
-4 -11 -6 3 -6 16 -1 17 -3 1 -32 -15 -29 -19 -31 -57 -26 -23 3 -34 3 -24 0
9 -2 17 -12 18 -21 0 -9 2 -29 4 -44 3 -21 -1 -28 -13 -28 -13 0 -14 -2 -4 -9
10 -6 0 -28 -39 -92 -29 -46 -61 -96 -73 -110 -20 -24 -22 -24 -48 -10 -16 9
-28 21 -28 28 0 11 -42 56 -83 89 -7 6 -32 13 -55 16 l-42 4 0 -58 c0 -57 0
-58 -29 -58 -20 0 -31 -6 -34 -17 -3 -13 -6 -10 -12 11 -6 20 -4 31 3 34 7 2
12 12 12 22 0 10 6 25 13 32 25 25 36 53 26 70 -7 13 -5 15 14 10 21 -5 21 -4
5 15 -26 28 -22 45 13 68 30 20 89 94 89 113 0 6 8 13 17 16 13 5 14 9 5 15
-9 5 -10 15 -4 32 22 62 -5 163 -61 228 -79 92 -218 137 -337 110z m220 -47
c25 -11 66 -42 92 -67 39 -41 48 -57 58 -109 16 -88 -1 -165 -38 -167 -14 0
-14 -2 3 -9 18 -7 19 -8 3 -15 -10 -4 -16 -11 -13 -15 5 -9 -12 -24 -37 -33
-15 -5 -16 -2 -8 18 13 35 -12 33 -39 -2 -20 -27 -20 -27 -21 -5 0 12 4 22 9
22 17 0 43 63 30 71 -7 4 -9 14 -6 22 4 11 1 14 -9 10 -9 -3 -15 2 -15 13 -1
11 -3 26 -4 34 -1 8 -3 22 -4 31 0 9 -10 19 -20 22 -16 4 -18 1 -11 -24 8 -28
-5 -106 -21 -123 -5 -5 -1 -22 8 -37 15 -25 15 -29 -1 -53 -19 -30 -25 -31
-51 -12 -16 11 -17 16 -7 29 11 13 10 15 -10 11 -13 -2 -17 -2 -10 2 6 3 12
13 12 21 0 10 6 13 18 9 15 -5 15 -4 -2 8 -10 8 -15 19 -12 24 8 14 -28 21
-49 9 -13 -7 -16 -6 -11 2 4 6 1 11 -7 11 -8 0 -18 -7 -21 -16 -3 -8 -2 -12 4
-9 6 3 10 -1 10 -11 0 -9 12 -27 26 -40 14 -13 22 -29 18 -35 -4 -8 -13 -4
-25 12 -20 26 -25 19 -8 -12 7 -15 7 -24 -1 -34 -9 -10 -5 -16 17 -27 15 -7
39 -30 52 -50 28 -44 42 -42 32 4 -9 44 -4 66 20 73 12 4 23 20 27 38 6 28 8
24 14 -33 10 -84 11 -94 3 -160 -12 -99 -45 -132 -45 -43 0 36 -4 46 -19 50
-11 3 -21 15 -23 27 -2 11 -6 19 -10 16 -3 -3 -23 16 -45 42 -21 27 -44 48
-51 48 -10 0 -13 16 -11 61 3 62 -4 76 -45 93 -7 3 -6 8 4 15 10 7 11 11 3 11
-19 0 -16 57 4 80 15 17 30 20 103 21 47 0 79 3 72 6 -6 2 -9 10 -5 15 4 7 -2
9 -15 6 -12 -4 -22 -4 -22 -1 0 12 22 43 31 43 6 0 7 -4 4 -10 -4 -6 8 -10 29
-10 43 0 86 -34 111 -89 10 -23 20 -39 23 -36 3 2 -7 28 -21 57 -38 76 -77 98
-175 99 -89 1 -137 -16 -175 -61 -37 -44 -43 -91 -24 -184 10 -44 16 -81 14
-83 -2 -2 -18 4 -36 13 -24 12 -31 21 -28 35 3 11 2 17 -2 14 -4 -2 -18 10
-31 27 -18 25 -22 44 -23 107 -1 64 2 84 25 127 29 56 52 79 68 69 5 -3 10 1
10 10 0 9 18 25 43 36 57 27 200 22 267 -9z m-110 -132 c-13 -24 -26 -26 -33
-6 -5 13 6 20 36 25 4 0 3 -8 -3 -19z m847 -116 c-3 -3 -12 -4 -19 -1 -8 3 -5
6 6 6 11 1 17 -2 13 -5z m-737 -114 c0 -5 -5 -10 -11 -10 -5 0 -7 5 -4 10 3 6
8 10 11 10 2 0 4 -4 4 -10z m685 -30 c13 -6 15 -9 5 -9 -8 0 -22 4 -30 9 -18
12 -2 12 25 0z m-77 -90 c47 -45 69 -52 51 -17 -8 16 -8 19 0 11 6 -6 16 -25
21 -43 l9 -32 -37 21 -37 22 27 -25 26 -25 -24 -11 c-20 -9 -22 -14 -14 -35
10 -28 -6 -30 -36 -6 -10 8 -15 10 -11 3 4 -6 4 -13 0 -16 -5 -2 -3 -2 4 -1 7
2 15 -1 18 -6 4 -6 16 -10 27 -10 33 0 15 -10 -27 -15 -21 -3 -36 -3 -33 0 3
4 -7 20 -23 36 -34 35 -36 43 -9 34 28 -9 25 6 -10 45 -16 18 -30 35 -30 37 0
11 22 -1 51 -27 17 -17 40 -30 50 -28 14 2 6 12 -31 38 -71 50 -86 92 -16 45
55 -37 74 -31 29 10 -21 19 -33 35 -28 35 6 0 29 -18 53 -40z m36 24 c3 -8 2
-12 -4 -9 -6 3 -10 10 -10 16 0 14 7 11 14 -7z m-1246 -62 c3 -10 -2 -10 -23
0 -22 10 -28 9 -36 -3 -5 -8 -9 -9 -9 -3 0 6 3 14 7 18 11 11 56 2 61 -12z
m460 -44 c-9 -5 -8 -9 4 -13 9 -4 20 -20 23 -36 8 -33 24 -38 32 -9 9 35 23
21 22 -22 -3 -68 -32 -107 -42 -55 -2 12 -3 8 -2 -9 2 -17 -1 -37 -6 -45 -7
-11 -9 -9 -9 8 0 12 -4 25 -10 28 -5 3 -10 -3 -10 -14 0 -25 -9 -31 -34 -22
-18 7 -23 18 -28 69 -1 12 -8 20 -14 18 -8 -3 -11 8 -9 37 3 56 13 77 36 77
10 0 19 7 19 15 0 12 3 12 20 -2 14 -12 16 -19 8 -25z m-107 -15 c-12 -20 -14
-14 -5 12 4 9 9 14 11 11 3 -2 0 -13 -6 -23z m-74 -110 c-3 -10 -5 -4 -5 12 0
17 2 24 5 18 2 -7 2 -21 0 -30z m468 -53 c-3 -5 -12 -10 -18 -10 -7 0 -6 4 3
10 19 12 23 12 15 0z m587 -51 c-4 -39 -5 -40 -36 -33 -17 3 -35 10 -39 14
-10 9 30 40 50 40 7 0 13 5 13 10 0 6 3 10 8 10 4 0 6 -18 4 -41z m-525 -1
c-3 -7 -5 -2 -5 12 0 14 2 19 5 13 2 -7 2 -19 0 -25z m-142 -17 c-17 -15 -51
-40 -78 -55 -26 -15 -45 -32 -42 -36 3 -4 -5 -6 -17 -2 -14 3 -19 1 -14 -6 3
-6 -2 -16 -13 -21 -11 -6 -26 -17 -33 -23 -15 -14 -55 -38 -63 -38 -3 0 -5 7
-5 16 0 11 -6 14 -22 9 -13 -3 -6 4 15 15 20 11 37 25 37 30 0 13 78 52 90 45
6 -3 10 -1 10 5 0 6 10 14 23 19 12 5 46 25 76 45 60 41 81 39 36 -3z m131 -8
c-3 -3 -13 -3 -22 1 -13 5 -14 9 -3 22 11 14 13 14 22 -1 5 -9 6 -19 3 -22z
m44 5 c0 -29 -2 -31 -15 -17 -9 9 -13 23 -9 32 10 28 24 19 24 -15z m-88 -20
c-7 -7 -12 -10 -12 -7 0 3 -29 -23 -64 -58 -35 -34 -67 -63 -70 -63 -15 0 -4
29 12 34 10 4 43 33 73 65 32 35 58 55 64 50 5 -6 5 -13 -3 -21z m-469 -29 c3
-10 11 -18 19 -16 7 2 10 2 5 0 -4 -3 -5 -9 -1 -14 10 -17 -23 -9 -38 9 -25
29 -27 38 -8 39 10 1 20 -7 23 -18z m1045 -3 c0 -20 -6 -25 -37 -29 -44 -5
-61 0 -61 20 0 11 9 13 36 10 25 -4 37 -1 41 9 8 22 21 16 21 -10z m-698 -36
c0 -6 -11 -15 -25 -22 -19 -9 -22 -15 -15 -29 10 -18 9 -18 -73 -85 -9 -8 -21
-14 -26 -14 -5 0 -11 -5 -13 -12 -5 -13 -38 -4 -38 11 0 5 16 12 35 15 34 7
58 26 33 26 -7 1 -2 7 10 14 21 11 22 14 9 28 -14 13 -9 18 41 46 68 36 62 34
62 22z m690 -17 c0 -19 -40 -71 -52 -68 -44 10 -54 18 -56 42 -2 23 0 24 15
12 11 -9 14 -10 9 -2 -5 9 -2 11 8 7 8 -3 23 -1 33 5 21 12 43 14 43 4z m-834
-69 c-14 -10 -16 -14 -5 -14 10 -1 9 -5 -5 -15 -11 -8 -29 -15 -40 -15 -19 1
-19 2 4 15 14 8 21 14 16 15 -4 0 2 9 15 19 13 11 26 17 29 14 3 -2 -4 -11
-14 -19z m-220 -61 c-14 -13 -26 -27 -26 -32 0 -4 -6 -8 -14 -8 -11 0 -12 7
-5 31 5 17 9 33 9 35 0 2 6 1 14 -2 10 -4 12 0 9 14 -4 15 -2 18 11 13 10 -4
17 -1 17 7 1 8 4 3 6 -10 3 -17 -3 -31 -21 -48z m118 11 c4 -10 14 -14 26 -11
11 3 20 1 20 -4 0 -5 -3 -9 -7 -10 -5 0 -15 -2 -23 -4 -8 -1 -33 -6 -55 -9
-22 -3 -53 -8 -70 -11 -40 -6 -18 3 42 18 37 9 47 17 45 30 -4 22 14 22 22 1z
m247 -15 c-12 -11 -27 -18 -34 -16 -7 2 0 10 16 17 15 7 27 18 27 23 0 6 3 7
7 4 3 -4 -3 -16 -16 -28z m634 -9 c-12 -14 -30 -20 -54 -19 -20 1 -28 3 -18 6
9 2 15 9 11 14 -3 5 10 16 28 23 41 18 59 5 33 -24z m-595 0 c0 -5 -7 -10 -16
-10 -8 0 -12 5 -9 10 3 6 10 10 16 10 5 0 9 -4 9 -10z m574 -44 c-3 -8 -14
-16 -25 -19 -16 -4 -17 -2 -8 14 11 22 41 26 33 5z m-464 -45 c0 -5 -4 -21 -9
-35 -7 -16 -7 -26 0 -28 7 -2 6 -19 -1 -51 -10 -40 -16 -47 -36 -47 -24 0 -34
25 -14 32 6 2 16 34 23 71 7 42 16 67 24 67 7 0 13 -4 13 -9z m-223 -53 c-3
-8 -6 -5 -6 6 -1 11 2 17 5 13 3 -3 4 -12 1 -19z m273 -24 c0 -19 -4 -34 -9
-34 -10 0 -21 60 -14 73 10 16 23 -6 23 -39z m-252 -31 c-8 -10 -7 -13 3 -13
11 0 11 -2 -1 -10 -25 -16 -30 -12 -30 25 0 19 5 35 10 35 6 0 10 8 11 18 0 9
5 4 10 -12 5 -20 4 -34 -3 -43z m39 35 c-3 -8 -6 -5 -6 6 -1 11 2 17 5 13 3
-3 4 -12 1 -19z m-297 -3 c0 -8 -2 -15 -4 -15 -2 0 -6 7 -10 15 -3 8 -1 15 4
15 6 0 10 -7 10 -15z m365 -6 c-10 -15 -25 -10 -19 6 4 8 10 12 15 9 5 -3 7
-10 4 -15z m35 -21 c0 -10 -4 -18 -9 -18 -11 0 -19 30 -13 49 4 11 6 11 13 0
5 -8 9 -22 9 -31z m-262 -29 c-1 -22 -5 -42 -8 -44 -9 -5 -26 8 -33 25 -3 8
-6 -1 -7 -20 -2 -32 -3 -33 -10 -10 l-8 25 -2 -25 -2 -25 -8 25 c-10 31 -12
66 -4 57 3 -3 17 -2 31 4 13 5 22 5 19 0 -3 -5 1 -12 10 -15 9 -3 12 -2 9 5
-4 5 -4 16 -1 24 10 27 17 15 14 -26z m652 -1 c0 -5 -4 -8 -10 -8 -5 0 -10 10
-10 23 0 18 2 19 10 7 5 -8 10 -18 10 -22z m-835 -18 c3 -5 2 -10 -4 -10 -5 0
-13 5 -16 10 -3 6 -2 10 4 10 5 0 13 -4 16 -10z m42 -12 c-3 -8 -6 -5 -6 6 -1
11 2 17 5 13 3 -3 4 -12 1 -19z m803 -2 c0 -8 3 -22 7 -32 4 -11 2 -15 -7 -12
-20 6 -32 58 -14 58 8 0 14 -6 14 -14z m-1001 -27 c-7 -4 -10 -11 -6 -15 4 -4
2 -13 -5 -21 -6 -7 -8 -16 -4 -20 3 -3 6 -1 6 5 0 6 7 9 16 5 13 -5 10 -9 -12
-18 -36 -15 -76 -14 -81 2 -2 6 5 14 17 18 11 3 18 10 15 15 -3 4 5 10 16 13
16 4 19 11 14 27 -6 20 -5 21 15 10 18 -9 20 -14 9 -21z m841 0 c0 8 3 12 6 9
19 -20 -101 -108 -126 -93 -5 3 -10 2 -10 -3 0 -12 -115 -36 -135 -28 -9 3
-13 11 -9 17 4 7 3 9 -3 6 -6 -4 -22 2 -34 13 -24 19 -24 19 -2 20 12 0 23 3
25 8 2 4 17 14 33 23 30 16 60 15 49 -2 -3 -5 0 -9 5 -9 6 0 11 4 11 9 0 6 28
8 65 5 44 -2 65 0 65 7 0 8 5 7 16 -1 13 -11 16 -10 21 9 4 17 8 19 14 9 7
-11 9 -10 9 1z m170 -44 c0 -8 -4 -15 -10 -15 -5 0 -10 7 -10 15 0 8 5 15 10
15 6 0 10 -7 10 -15z m-1687 -2 c-7 -2 -19 -2 -25 0 -7 3 -2 5 12 5 14 0 19
-2 13 -5z m50 0 c-7 -2 -19 -2 -25 0 -7 3 -2 5 12 5 14 0 19 -2 13 -5z m47
-29 c0 -2 -7 -4 -15 -4 -8 0 -15 4 -15 10 0 5 7 7 15 4 8 -4 15 -8 15 -10z
m10 -18 c0 -3 -4 -8 -10 -11 -5 -3 -10 -1 -10 4 0 6 5 11 10 11 6 0 10 -2 10
-4z m-75 -17 c10 -14 1 -21 -19 -13 -9 3 -13 10 -10 15 7 12 21 11 29 -2z
m655 1 c-12 -8 -12 -10 -1 -10 8 0 12 -2 9 -5 -7 -8 -38 5 -38 16 0 5 10 9 23
9 18 0 19 -2 7 -10z m-611 -21 c-16 -10 -23 -4 -14 10 3 6 11 8 17 5 6 -4 5
-9 -3 -15z m1446 1 c-10 -11 -15 -23 -12 -27 4 -3 7 -2 7 4 0 5 7 10 15 10 11
0 12 -4 6 -10 -7 -7 -7 -15 0 -24 9 -10 8 -13 -2 -13 -10 -1 -9 -4 3 -10 13
-8 15 -19 11 -48 -7 -45 -11 -51 -23 -32 -8 12 -10 11 -10 -7 0 -12 6 -23 12
-25 13 -5 12 -88 0 -98 -4 -3 -8 -25 -9 -49 -1 -24 -8 -48 -15 -53 -10 -6 -10
-8 2 -8 9 0 11 -3 5 -8 -6 -4 -23 -22 -38 -40 -15 -19 -27 -27 -27 -19 0 14
-10 17 -74 19 l-40 0 47 43 c46 41 62 70 33 59 -12 -4 -14 1 -10 22 3 15 2 34
-1 43 -6 14 -7 14 -16 -1 -6 -10 -16 -18 -24 -18 -9 0 -12 -6 -9 -15 4 -8 1
-15 -6 -15 -6 0 -9 -4 -6 -9 7 -10 -49 -33 -58 -24 -3 4 -6 1 -6 -5 0 -7 -7
-12 -16 -12 -29 0 -8 23 31 34 46 13 50 25 60 170 5 63 4 86 -4 82 -6 -4 -11
-2 -11 3 0 6 5 11 11 11 5 0 7 6 4 13 -4 6 7 -3 25 -21 l31 -34 12 31 c7 19
17 29 24 27 7 -3 13 -1 13 5 0 6 5 7 10 4 6 -4 9 -3 8 2 -3 10 43 63 55 63 6
0 2 -9 -8 -20z m-535 -71 c0 -5 8 -28 19 -52 10 -23 24 -57 31 -74 7 -18 16
-30 20 -28 5 3 11 1 14 -4 4 -5 2 -12 -4 -16 -6 -4 -7 -11 -4 -17 4 -7 2 -8
-5 -4 -16 10 -42 62 -34 70 4 3 -1 6 -10 6 -10 0 -17 7 -17 15 0 8 -5 15 -11
15 -5 0 -8 4 -5 9 3 5 -1 31 -9 57 -8 27 -15 60 -15 74 1 23 2 22 15 -9 8 -18
15 -37 15 -42z m-980 51 c0 -5 -5 -10 -11 -10 -5 0 -7 5 -4 10 3 6 8 10 11 10
2 0 4 -4 4 -10z m30 -11 c0 -5 -4 -9 -10 -9 -5 0 -10 7 -10 16 0 8 5 12 10 9
6 -3 10 -10 10 -16z m577 -4 c0 -8 -4 -15 -9 -15 -10 0 -11 14 -1 23 9 10 10
9 10 -8z m96 -6 c3 -10 0 -22 -5 -26 -7 -3 -8 -1 -4 5 5 8 -1 13 -16 14 -13 0
-27 2 -33 3 -5 2 -14 4 -20 5 -11 2 31 15 57 17 9 1 18 -7 21 -18z m-756 -36
c-3 -10 -5 -2 -5 17 0 19 2 27 5 18 2 -10 2 -26 0 -35z m150 11 c-9 -9 -28 6
-21 18 4 6 10 6 17 -1 6 -6 8 -13 4 -17z m749 -40 c-19 -19 -21 -5 -3 33 11
26 12 26 15 5 2 -12 -4 -29 -12 -38z m-809 24 c-3 -8 -6 -5 -6 6 -1 11 2 17 5
13 3 -3 4 -12 1 -19z m618 2 c3 -5 1 -10 -4 -10 -6 0 -11 5 -11 10 0 6 2 10 4
10 3 0 8 -4 11 -10z m1010 -28 c0 -17 3 -32 7 -32 5 0 8 -7 8 -15 0 -9 -9 -15
-25 -15 -23 0 -31 13 -26 43 1 4 2 19 3 33 4 38 33 26 33 -14z m-1568 -4 c-3
-7 -5 -2 -5 12 0 14 2 19 5 13 2 -7 2 -19 0 -25z m1066 9 c4 3 7 -1 7 -10 0
-9 4 -17 9 -17 5 0 12 -8 14 -17 2 -10 2 -3 0 16 -3 24 -1 32 9 28 7 -2 12
-14 11 -26 -2 -13 1 -20 7 -16 6 4 7 -5 4 -23 -6 -28 -5 -30 26 -27 18 2 36 9
41 16 7 12 9 11 9 -1 0 -8 3 -25 6 -37 5 -18 1 -25 -17 -32 -21 -8 -21 -10 -4
-10 18 -1 18 -2 3 -17 -9 -9 -28 -16 -42 -16 -14 0 -32 7 -41 16 -9 9 -21 16
-26 16 -5 0 -9 7 -9 16 0 8 -4 13 -10 9 -5 -3 -17 6 -26 20 -9 13 -21 22 -26
19 -5 -3 -2 8 6 25 9 17 12 31 6 31 -5 0 -10 5 -10 11 0 5 5 7 10 4 10 -6 14
6 11 35 -1 12 1 11 12 -2 8 -10 17 -15 20 -11z m-553 -7 c0 -5 -4 -10 -10 -10
-5 0 -10 5 -10 10 0 6 5 10 10 10 6 0 10 -4 10 -10z m710 -19 c0 -11 -4 -23
-10 -26 -6 -4 -10 5 -10 19 0 14 5 26 10 26 6 0 10 -9 10 -19z m-630 -21 c0
-11 -3 -20 -7 -21 -5 0 -21 -2 -38 -4 -16 -2 -22 -1 -12 2 9 2 17 13 17 24 0
12 7 19 20 19 13 0 20 -7 20 -20z m-550 -37 c0 -6 -5 -15 -11 -19 -8 -5 -10
-34 -6 -92 3 -47 1 -79 -3 -72 -5 8 -8 49 -8 92 0 44 -3 82 -6 85 -3 4 -6 -22
-6 -56 0 -41 -4 -60 -10 -56 -6 4 -8 14 -6 23 3 10 6 45 7 79 l2 62 23 -17
c13 -9 24 -22 24 -29z m-143 31 c-3 -3 -12 -4 -19 -1 -8 3 -5 6 6 6 11 1 17
-2 13 -5z m19 -25 c4 -8 9 -7 15 2 7 11 9 10 9 -3 0 -10 -7 -18 -15 -18 -8 0
-15 5 -15 11 0 6 -9 9 -20 6 -11 -3 -18 -1 -14 4 7 12 31 11 40 -2z m801 -11
c-3 -8 -6 -5 -6 6 -1 11 2 17 5 13 3 -3 4 -12 1 -19z m27 6 c3 -8 2 -12 -4 -9
-6 3 -10 10 -10 16 0 14 7 11 14 -7z m836 -8 c0 -9 -7 -12 -21 -9 -16 4 -17 8
-7 14 19 13 28 11 28 -5z m-1633 -76 c0 -33 -3 -63 -8 -66 -5 -3 -9 23 -10 58
-1 43 -3 55 -8 38 l-7 -25 -6 28 c-4 23 -2 27 17 27 19 0 21 -5 22 -60z m671
23 c24 -66 24 -69 13 -53 -29 42 -12 -102 20 -161 6 -12 4 -19 -6 -23 -8 -3
-17 -1 -20 4 -3 4 1 11 7 13 8 3 5 6 -6 6 -12 1 -16 6 -12 16 3 8 -2 21 -10
30 -12 11 -12 15 -2 15 10 0 9 3 -2 10 -8 5 -10 10 -5 10 6 0 4 4 -4 9 -8 5
-15 18 -16 28 -4 35 -15 95 -20 103 -3 5 1 11 7 13 29 12 47 6 56 -20z m-698
-33 c0 -5 -5 -10 -11 -10 -5 0 -7 5 -4 10 3 6 8 10 11 10 2 0 4 -4 4 -10z
m1113 -62 c17 -15 35 -24 40 -21 11 7 36 -28 30 -43 -2 -7 5 -18 17 -24 11 -6
18 -15 15 -20 -3 -6 1 -7 10 -4 10 4 15 2 13 -7 -2 -8 4 -14 12 -14 8 -1 33
-10 55 -20 49 -24 123 -25 159 -2 14 10 26 14 26 10 0 -5 6 3 13 16 14 29 37
39 37 17 0 -9 -6 -16 -12 -16 -7 0 -3 -7 8 -15 16 -10 20 -21 16 -42 -5 -26
-5 -26 -13 -5 -11 30 -29 35 -65 21 -16 -7 -35 -13 -42 -15 -37 -7 -43 -13
-30 -27 7 -8 19 -14 27 -13 17 1 23 -15 12 -33 -12 -18 -48 -5 -54 20 -3 13
-12 19 -24 18 -27 -4 -64 11 -57 23 4 6 3 8 -3 5 -13 -8 -63 15 -63 29 0 11
-59 40 -95 47 -11 2 -19 8 -18 15 2 6 -13 24 -33 40 -22 18 -31 32 -25 36 7 5
6 15 -5 32 -10 15 -12 24 -5 24 6 0 12 8 12 18 1 14 2 13 6 -3 3 -11 19 -32
36 -47z m-1126 10 c-3 -7 -5 -2 -5 12 0 14 2 19 5 13 2 -7 2 -19 0 -25z m759
-56 c-6 -6 -26 43 -25 61 0 7 7 -3 15 -22 8 -18 13 -36 10 -39z m1278 52 c20
-8 21 -24 2 -24 -8 0 -16 7 -20 15 -6 17 -4 18 18 9z m-1504 -14 c0 -5 -5 -10
-11 -10 -5 0 -7 5 -4 10 3 6 8 10 11 10 2 0 4 -4 4 -10z m42 -152 c-7 -7 -12
-8 -12 -2 0 6 3 14 7 17 3 4 9 5 12 2 2 -3 -1 -11 -7 -17z m122 6 c3 -8 2 -12
-4 -9 -6 3 -10 10 -10 16 0 14 7 11 14 -7z m-370 -37 c5 -21 -8 -37 -31 -37
-20 0 -15 30 5 31 16 1 16 2 0 6 -18 5 -23 15 -12 26 11 10 32 -4 38 -26z m33
17 c-3 -3 -12 -4 -19 -1 -8 3 -5 6 6 6 11 1 17 -2 13 -5z m1308 -4 c3 -5 -1
-10 -9 -10 -8 0 -18 5 -21 10 -3 6 1 10 9 10 8 0 18 -4 21 -10z m35 -22 c0 -7
-5 -20 -10 -28 -8 -12 -10 -9 -10 13 0 15 5 27 10 27 6 0 10 -6 10 -12z m39
-2 c10 -12 8 -13 -8 -9 -12 3 -21 9 -21 14 0 14 16 11 29 -5z m-604 -48 c14
-88 14 -97 6 -103 -10 -5 -20 37 -27 108 -7 64 11 60 21 -5z m433 -33 c-1 -41
-6 -64 -12 -62 -14 5 -19 51 -11 94 10 56 25 37 23 -32z m62 55 c0 -5 -9 -10
-20 -10 -11 0 -20 5 -20 10 0 6 9 10 20 10 11 0 20 -4 20 -10z m188 -50 c0
-22 -3 -40 -9 -40 -10 0 -12 40 -3 64 9 24 12 20 12 -24z m-1328 10 c0 -11 -7
-20 -15 -20 -8 0 -15 9 -15 20 0 11 7 20 15 20 8 0 15 -9 15 -20z m220 -37
c-7 -21 -19 -47 -27 -58 -8 -11 -13 -15 -11 -10 33 90 43 113 46 110 2 -2 -2
-21 -8 -42z m117 25 c-3 -8 -6 -5 -6 6 -1 11 2 17 5 13 3 -3 4 -12 1 -19z
m850 -30 c2 -27 0 -48 -5 -48 -15 0 -30 16 -33 35 -3 11 -9 20 -14 20 -5 0
-11 -9 -13 -20 -8 -45 -22 -37 -22 12 l0 52 42 -2 42 -2 3 -47z m-147 37 c0
-10 -39 -43 -44 -37 -11 10 -6 22 9 22 8 0 15 5 15 10 0 6 5 10 10 10 6 0 10
-2 10 -5z m170 -49 c-7 -7 -10 1 -9 25 0 32 1 33 10 10 6 -16 6 -28 -1 -35z
m80 29 c0 -14 -4 -25 -10 -25 -5 0 -10 11 -10 25 0 14 5 25 10 25 6 0 10 -11
10 -25z m-1239 3 c0 -10 2 -10 6 0 8 21 23 13 23 -14 0 -22 -4 -25 -27 -22
-21 2 -28 9 -29 26 -1 12 5 22 12 22 8 0 14 -6 15 -12z m-196 -26 c0 -12 -4
-22 -10 -21 -5 1 -9 5 -7 10 1 5 -2 9 -8 9 -5 0 -10 7 -10 16 0 9 7 14 18 12
10 -2 17 -12 17 -26z m143 1 c-5 -26 -38 -29 -38 -4 0 15 6 21 21 21 14 0 19
-5 17 -17z m1019 -165 c-2 -13 -4 -5 -4 17 -1 22 1 32 4 23 2 -10 2 -28 0 -40z
m-984 17 c-3 -9 -8 -14 -10 -11 -3 3 -2 9 2 15 9 16 15 13 8 -4z m444 -7 c-3
-8 -6 -5 -6 6 -1 11 2 17 5 13 3 -3 4 -12 1 -19z"/>
<path d="M2285 3620 c3 -5 8 -10 11 -10 2 0 4 5 4 10 0 6 -5 10 -11 10 -5 0
-7 -4 -4 -10z"/>
<path d="M2688 3463 c7 -3 16 -2 19 1 4 3 -2 6 -13 5 -11 0 -14 -3 -6 -6z"/>
<path d="M2652 3355 c0 -16 2 -22 5 -12 2 9 2 23 0 30 -3 6 -5 -1 -5 -18z"/>
<path d="M2348 3353 c7 -3 16 -2 19 1 4 3 -2 6 -13 5 -11 0 -14 -3 -6 -6z"/>
<path d="M2618 3293 c7 -3 16 -2 19 1 4 3 -2 6 -13 5 -11 0 -14 -3 -6 -6z"/>
<path d="M2360 3021 c0 -10 19 -25 25 -20 1 2 -3 10 -11 17 -8 7 -14 8 -14 3z"/>
<path d="M2877 1805 c3 -8 9 -12 14 -9 12 7 11 11 -5 17 -10 4 -13 1 -9 -8z"/>
<path d="M1407 3653 c-3 -2 12 -21 34 -40 41 -37 49 -63 24 -83 -20 -17 -49
-5 -83 35 -28 32 -31 33 -46 16 -14 -16 -13 -20 22 -54 21 -21 48 -37 60 -37
27 0 72 42 72 66 0 18 -75 105 -83 97z"/>
<path d="M3639 3602 c-2 -5 -25 -27 -51 -49 l-46 -41 36 -34 c45 -43 65 -51
96 -37 37 17 49 54 31 94 -18 37 -61 81 -66 67z m49 -66 c6 -32 -52 -81 -82
-70 -24 9 -20 20 22 59 39 36 55 39 60 11z"/>
<path d="M1888 3583 c6 -2 18 -2 25 0 6 3 1 5 -13 5 -14 0 -19 -2 -12 -5z"/>
<path d="M3140 3566 c0 -2 7 -6 15 -10 8 -3 15 -1 15 4 0 6 -7 10 -15 10 -8 0
-15 -2 -15 -4z"/>
<path d="M2876 3425 c3 -30 0 -35 -18 -35 -12 0 -19 -2 -16 -5 10 -11 98 8 98
21 0 7 10 15 23 17 l22 4 -22 2 c-15 0 -23 7 -23 19 0 10 -3 13 -8 6 -4 -6
-14 -14 -22 -17 -12 -4 -11 -6 3 -6 9 -1 17 -8 17 -17 0 -28 -35 -11 -38 19
-5 40 -19 33 -16 -8z"/>
<path d="M1228 3394 l-3 -39 -22 22 -22 22 -15 -21 c-14 -19 -12 -23 42 -63
54 -39 58 -41 70 -23 11 16 10 21 -15 43 l-28 24 32 1 c17 0 35 -5 38 -10 6
-9 45 29 45 43 0 2 -23 7 -52 10 -28 4 -55 12 -59 19 -4 7 -9 -5 -11 -28z"/>
<path d="M3799 3414 c-7 -17 -96 -74 -104 -66 -5 4 0 -7 10 -24 17 -31 18 -31
37 -12 18 18 38 17 38 -3 0 -5 -8 -17 -19 -28 -17 -17 -17 -19 -1 -41 l17 -23
18 30 c13 23 23 29 41 25 30 -6 39 16 25 60 -13 39 -56 96 -62 82z m51 -80 c0
-7 -9 -18 -19 -24 -15 -8 -24 -6 -36 7 -16 15 -15 18 6 34 25 19 49 10 49 -17z"/>
<path d="M2798 3403 c6 -2 18 -2 25 0 6 3 1 5 -13 5 -14 0 -19 -2 -12 -5z"/>
<path d="M2945 3376 c-18 -13 -18 -14 8 -9 15 3 24 9 21 14 -7 12 -7 12 -29
-5z"/>
<path d="M3033 3383 c9 -2 23 -2 30 0 6 3 -1 5 -18 5 -16 0 -22 -2 -12 -5z"/>
<path d="M2988 3343 c6 -2 18 -2 25 0 6 3 1 5 -13 5 -14 0 -19 -2 -12 -5z"/>
<path d="M1658 3293 c6 -2 18 -2 25 0 6 3 1 5 -13 5 -14 0 -19 -2 -12 -5z"/>
<path d="M1531 3274 c0 -11 3 -14 6 -6 3 7 2 16 -1 19 -3 4 -6 -2 -5 -13z"/>
<path d="M2813 3283 c-7 -2 -13 -13 -13 -22 0 -14 -6 -17 -28 -13 -27 3 -29 1
-30 -29 0 -17 -6 -35 -12 -39 -9 -6 -9 -9 0 -15 7 -4 13 1 17 14 4 17 13 21
44 21 32 0 39 -3 39 -20 0 -11 4 -20 9 -20 5 0 7 9 4 19 -5 18 -2 19 28 11 60
-15 136 -22 119 -11 -8 6 -32 11 -52 11 -34 0 -38 3 -38 25 0 19 5 25 23 26
15 1 17 3 5 6 -9 2 -19 12 -21 21 -4 15 -5 15 -6 0 -1 -24 -17 -23 -43 2 -23
21 -25 22 -45 13z"/>
<path d="M3028 3283 c7 -3 16 -2 19 1 4 3 -2 6 -13 5 -11 0 -14 -3 -6 -6z"/>
<path d="M1071 3214 c-29 -37 -27 -78 5 -103 49 -38 93 -23 118 40 16 39 16
42 -1 55 -25 18 -28 18 -41 -10 -9 -20 -8 -25 9 -29 23 -6 25 -25 4 -33 -21
-8 -58 2 -86 25 -19 15 -21 21 -11 34 7 9 21 13 33 10 21 -6 42 14 33 29 -10
17 -43 7 -63 -18z"/>
<path d="M3890 3159 c-30 -14 -58 -25 -62 -22 -11 6 -10 -2 3 -31 11 -23 14
-24 33 -11 29 21 46 19 46 -5 0 -21 15 -27 25 -10 3 6 2 10 -3 10 -22 0 -21
31 1 39 27 11 50 -13 41 -43 -5 -17 -4 -19 7 -8 11 10 9 21 -11 60 l-25 48
-55 -27z"/>
<path d="M1688 3163 c6 -2 18 -2 25 0 6 3 1 5 -13 5 -14 0 -19 -2 -12 -5z"/>
<path d="M2878 3158 c12 -15 10 -17 -15 -21 -27 -4 -27 -4 5 -6 36 -1 41 10
15 30 -16 13 -17 12 -5 -3z"/>
<path d="M2664 3143 c4 -5 13 -8 19 -8 7 0 12 -9 12 -20 0 -13 8 -21 23 -23
19 -3 22 1 22 27 0 30 -2 31 -42 31 -23 0 -38 -3 -34 -7z"/>
<path d="M2940 3130 l-35 -7 32 -2 c17 0 35 4 38 9 3 6 5 9 3 9 -2 -1 -19 -5
-38 -9z"/>
<path d="M2660 3110 c0 -5 5 -10 10 -10 6 0 10 5 10 10 0 6 -4 10 -10 10 -5 0
-10 -4 -10 -10z"/>
<path d="M2798 3103 c7 -3 16 -2 19 1 4 3 -2 6 -13 5 -11 0 -14 -3 -6 -6z"/>
<path d="M3854 3057 c3 -10 6 -21 6 -23 0 -2 10 -4 23 -3 14 0 17 2 7 6 -8 3
-21 13 -29 22 -12 15 -13 14 -7 -2z"/>
<path d="M1748 3033 c7 -3 16 -2 19 1 4 3 -2 6 -13 5 -11 0 -14 -3 -6 -6z"/>
<path d="M980 3022 c0 -5 20 -15 45 -22 24 -7 42 -16 40 -20 -3 -5 -28 -14
-56 -21 -38 -10 -53 -19 -60 -38 -5 -13 -8 -25 -7 -25 2 -1 28 -10 58 -20 30
-9 61 -20 68 -23 6 -2 12 -1 12 4 0 5 -22 15 -50 22 -27 7 -50 16 -50 19 0 4
27 15 60 25 44 13 63 24 69 40 7 20 4 23 -41 34 -27 7 -58 18 -69 23 -10 6
-19 7 -19 2z"/>
<path d="M1783 2993 c9 -2 25 -2 35 0 9 3 1 5 -18 5 -19 0 -27 -2 -17 -5z"/>
<path d="M3448 2993 c7 -3 16 -2 19 1 4 3 -2 6 -13 5 -11 0 -14 -3 -6 -6z"/>
<path d="M3383 2933 c9 -2 25 -2 35 0 9 3 1 5 -18 5 -19 0 -27 -2 -17 -5z"/>
<path d="M3673 2929 c-24 -9 -32 -40 -10 -38 27 1 44 14 38 30 -4 12 -12 14
-28 8z"/>
<path d="M3904 2932 c4 -7 15 -12 25 -12 11 0 21 -10 25 -22 9 -37 7 -48 -10
-48 -12 0 -15 -6 -10 -22 3 -13 6 -29 6 -36 0 -7 29 11 65 39 36 28 65 52 65
54 0 23 -17 35 -49 34 -24 -1 -28 -3 -13 -6 l23 -4 -27 -21 c-21 -17 -27 -19
-35 -7 -12 20 -11 36 4 42 6 3 0 6 -15 6 -14 1 -34 4 -44 8 -12 4 -15 3 -10
-5z"/>
<path d="M1860 2869 c0 -5 5 -7 10 -4 6 3 10 8 10 11 0 2 -4 4 -10 4 -5 0 -10
-5 -10 -11z"/>
<path d="M1723 2833 c9 -2 23 -2 30 0 6 3 -1 5 -18 5 -16 0 -22 -2 -12 -5z"/>
<path d="M910 2753 c0 -26 4 -29 33 -31 19 -1 47 -6 64 -11 18 -5 34 -7 37 -3
9 8 7 54 -2 48 -8 -5 -86 8 -114 19 -15 6 -18 2 -18 -22z"/>
<path d="M4047 2698 c-9 -7 -23 -31 -31 -53 -9 -27 -19 -40 -30 -39 -20 2 -16
-16 7 -30 25 -16 47 2 66 54 9 25 21 45 26 45 17 0 17 -41 0 -55 -16 -13 -21
-40 -7 -40 32 0 43 70 16 108 -18 25 -24 27 -47 10z"/>
<path d="M3977 2693 c-4 -3 -7 -18 -7 -31 0 -24 1 -25 20 -7 11 10 20 24 20
32 0 14 -22 18 -33 6z"/>
<path d="M1588 2683 c7 -3 16 -2 19 1 4 3 -2 6 -13 5 -11 0 -14 -3 -6 -6z"/>
<path d="M1841 2674 c0 -11 3 -14 6 -6 3 7 2 16 -1 19 -3 4 -6 -2 -5 -13z"/>
<path d="M1008 2599 c6 -7 12 -24 12 -37 0 -23 -2 -24 -65 -20 -64 3 -65 3
-65 -22 0 -24 3 -26 33 -22 19 2 50 -1 70 -6 l37 -10 0 58 c0 46 -4 59 -17 65
-15 5 -16 4 -5 -6z"/>
<path d="M1360 2381 c0 -5 9 -7 20 -4 11 3 20 7 20 9 0 2 -9 4 -20 4 -11 0
-20 -4 -20 -9z"/>
<path d="M3318 2203 c7 -3 16 -2 19 1 4 3 -2 6 -13 5 -11 0 -14 -3 -6 -6z"/>
<path d="M3891 2043 c-6 -20 -9 -38 -8 -39 6 -5 119 -35 122 -32 9 10 16 50 8
45 -12 -8 -113 22 -113 33 0 5 8 14 18 19 16 10 16 10 0 11 -11 0 -21 -13 -27
-37z"/>
<path d="M3526 2021 c-15 -17 -15 -19 -1 -25 9 -3 28 -6 41 -6 14 0 27 -7 31
-16 5 -13 7 -13 14 -2 7 10 9 9 9 -4 0 -13 -8 -18 -29 -18 -38 0 -48 -16 -21
-30 12 -6 25 -21 30 -33 8 -19 9 -18 9 12 1 25 5 32 16 27 9 -3 15 0 15 10 0
23 -20 55 -30 49 -5 -3 -11 -1 -15 5 -3 5 -20 10 -37 10 -30 0 -31 0 -13 20
10 11 14 20 8 20 -5 0 -18 -8 -27 -19z"/>
<path d="M3570 2020 c0 -5 5 -10 11 -10 5 0 7 5 4 10 -3 6 -8 10 -11 10 -2 0
-4 -4 -4 -10z"/>
<path d="M1337 2003 c-3 -4 1 -19 9 -33 12 -22 13 -23 13 -5 1 24 -14 50 -22
38z"/>
<path d="M3870 1975 c0 -8 4 -15 10 -15 5 0 7 7 4 15 -4 8 -8 15 -10 15 -2 0
-4 -7 -4 -15z"/>
<path d="M1095 1939 c-22 -10 -48 -19 -57 -19 -21 0 -23 -10 -5 -33 11 -15 15
-15 56 3 24 11 50 20 58 20 10 0 13 6 9 16 -3 9 -6 20 -6 25 0 12 -8 11 -55
-12z"/>
<path d="M1161 1888 c-2 -33 -71 -47 -71 -15 0 6 -3 7 -6 4 -13 -13 26 -57 52
-57 28 0 37 16 31 57 -2 15 -5 20 -6 11z"/>
<path d="M3540 1876 c0 -8 4 -17 8 -20 4 -2 8 4 8 15 0 10 -4 19 -8 19 -4 0
-8 -6 -8 -14z"/>
<path d="M3840 1882 c0 -3 17 -23 37 -44 l37 -38 -26 0 c-15 0 -38 4 -52 10
-23 8 -28 6 -40 -19 -14 -27 -14 -28 7 -24 15 3 30 -4 47 -23 l25 -27 -56 6
c-53 5 -57 4 -68 -19 l-11 -24 74 0 c85 0 97 11 58 53 l-26 27 42 0 c56 0 55
19 -3 81 -25 26 -45 45 -45 41z"/>
<path d="M3500 1740 c-8 -5 -10 -10 -5 -10 6 0 17 5 25 10 8 5 11 10 5 10 -5
0 -17 -5 -25 -10z"/>
<path d="M1243 1723 c-7 -3 -13 -11 -13 -18 0 -8 -11 -22 -25 -33 -14 -11 -25
-24 -25 -30 0 -6 -5 -12 -11 -14 -9 -3 -8 -10 1 -28 l13 -24 43 49 c24 28 44
57 44 65 0 22 -13 38 -27 33z"/>
<path d="M3477 1715 c3 -8 9 -12 14 -9 12 7 11 11 -5 17 -10 4 -13 1 -9 -8z"/>
<path d="M1117 1694 c2 -7 11 -10 19 -7 19 7 18 10 -5 16 -13 3 -18 1 -14 -9z"/>
<path d="M1160 1696 c0 -8 4 -18 10 -21 5 -3 7 0 4 9 -4 9 2 16 18 19 21 4 20
4 -4 6 -18 1 -28 -4 -28 -13z"/>
<path d="M3657 1558 l-35 -42 49 -33 c27 -19 49 -38 49 -44 0 -6 8 -1 19 12
16 20 17 25 4 34 -12 9 -12 15 1 45 32 77 -30 97 -87 28z m61 0 c14 -14 16
-44 4 -52 -13 -8 -66 39 -58 52 9 15 39 15 54 0z"/>
<path d="M1305 1535 c-22 -19 -46 -34 -52 -35 -17 0 -16 -10 3 -31 14 -16 18
-16 31 -4 8 8 19 15 24 15 14 0 11 -27 -5 -43 -13 -13 -12 -17 9 -37 l23 -22
7 31 c5 24 12 31 31 31 44 0 39 42 -13 107 l-18 22 -40 -34z m78 -51 c-6 -17
-35 -18 -51 -2 -10 10 -8 16 10 30 21 16 24 16 35 2 6 -9 9 -22 6 -30z"/>
<path d="M1865 1400 c3 -5 8 -10 11 -10 2 0 4 5 4 10 0 6 -5 10 -11 10 -5 0
-7 -4 -4 -10z"/>
<path d="M2838 1403 c7 -3 16 -2 19 1 4 3 -2 6 -13 5 -11 0 -14 -3 -6 -6z"/>
<path d="M1442 1357 c-12 -13 -22 -33 -22 -46 0 -30 43 -71 75 -71 59 0 86 77
42 118 -30 28 -68 28 -95 -1z m95 -13 c6 -18 -42 -79 -65 -82 -29 -4 -30 29
-1 70 21 29 58 36 66 12z"/>
<path d="M3418 1308 l-37 -33 42 -47 c39 -44 43 -46 62 -31 14 11 16 17 8 20
-19 7 -16 27 7 48 13 12 20 29 18 44 -5 41 -54 41 -100 -1z m60 0 c15 -15 16
-45 1 -54 -6 -3 -23 5 -38 20 -22 23 -24 28 -11 36 20 13 34 12 48 -2z"/>
<path d="M1615 1208 c-31 -47 -34 -54 -19 -65 13 -10 20 -7 41 15 l24 27 -4
-41 c-4 -32 -1 -43 14 -52 10 -7 21 -12 23 -12 2 0 6 25 8 55 3 52 2 55 -21
55 -22 0 -23 1 -7 25 15 23 15 25 -4 35 -17 9 -24 4 -55 -42z"/>
<path d="M3253 1194 c-41 -25 -42 -26 -24 -45 10 -11 27 -35 37 -54 10 -19 21
-35 24 -35 3 0 16 9 30 20 14 11 19 19 12 18 -8 -2 -21 7 -29 20 -15 22 -15
23 5 29 22 5 27 14 15 26 -3 4 -12 -1 -20 -11 -12 -16 -14 -16 -28 3 -14 18
-14 21 2 33 10 7 23 10 30 8 7 -3 13 -1 13 4 0 16 -23 11 -67 -16z"/>
<path d="M1730 1200 c0 -5 5 -10 11 -10 5 0 7 5 4 10 -3 6 -8 10 -11 10 -2 0
-4 -4 -4 -10z"/>
<path d="M1816 1083 c-21 -44 -25 -58 -14 -64 21 -14 22 -12 52 48 21 44 25
58 14 64 -21 14 -22 12 -52 -48z"/>
<path d="M3357 1121 c-4 -17 -3 -21 5 -13 5 5 8 16 6 23 -3 8 -7 3 -11 -10z"/>
<path d="M3100 1110 l-25 -6 25 -7 c34 -9 50 -9 50 2 0 13 -22 18 -50 11z"/>
<path d="M3051 1082 c-18 -33 0 -50 57 -54 38 -2 47 -6 46 -21 -2 -17 -1 -17
17 -1 39 35 12 64 -60 64 -30 0 -40 4 -43 18 -3 14 -6 14 -17 -6z"/>
<path d="M2860 1020 c-43 -43 -13 -110 49 -110 63 0 92 56 55 108 -20 29 -76
30 -104 2z m65 -14 c9 -13 17 -37 18 -52 3 -44 -33 -39 -56 7 -28 59 4 97 38
45z"/>
<path d="M2087 1023 c-15 -15 -5 -41 28 -73 27 -26 32 -37 23 -47 -9 -11 -6
-12 13 -5 38 14 35 46 -5 79 -20 15 -36 34 -36 41 0 13 -13 16 -23 5z"/>
<path d="M2156 1005 c18 -28 34 -33 34 -10 0 8 -9 19 -19 25 -30 15 -33 12
-15 -15z"/>
<path d="M3070 995 c0 -11 11 -15 38 -15 l37 0 -29 15 c-36 19 -46 19 -46 0z"/>
<path d="M2280 984 c0 -14 3 -14 15 -4 8 7 15 14 15 16 0 2 -7 4 -15 4 -8 0
-15 -7 -15 -16z"/>
<path d="M2733 988 c0 -7 -4 -22 -7 -33 -5 -13 -2 -12 8 5 17 29 20 40 8 40
-5 0 -9 -6 -9 -12z"/>
<path d="M2320 958 c0 -18 -4 -48 -9 -66 -9 -30 -8 -32 17 -32 26 0 27 3 30
57 2 32 6 60 8 62 3 3 14 -1 26 -8 17 -10 19 -10 16 1 -3 7 -23 14 -46 16 -41
3 -42 3 -42 -30z"/>
<path d="M2645 945 c24 -30 35 -53 32 -65 -6 -22 -3 -23 29 -14 17 5 20 11 15
33 -9 43 -55 91 -87 91 l-26 0 37 -45z"/>
<path d="M2060 944 c0 -16 26 -43 42 -44 3 0 0 14 -8 30 -17 33 -34 40 -34 14z"/>
<path d="M2493 868 c2 -7 10 -13 17 -13 7 0 15 6 18 13 2 7 -5 12 -18 12 -13
0 -20 -5 -17 -12z"/>
</g>
</svg>
